<svg xmlns="http://www.w3.org/2000/svg" viewBox="0 0 900 650" role="img" aria-label="Signature cold brew">
  <rect width="900" height="650" fill="#102018"/>
  <circle cx="674" cy="150" r="220" fill="#9fc8a0" opacity=".14"/>
  <path d="M320 92h260l-35 464c-4 51-47 90-98 90h-4c-51 0-94-39-98-90Z" fill="#e5d1ba"/>
  <path d="M348 188h204l-27 340c-3 38-34 67-72 67h-6c-38 0-69-29-72-67Z" fill="#21120c"/>
  <rect x="350" y="300" width="200" height="118" fill="#8a5639" opacity=".88"/>
  <g fill="#d9c9b8" opacity=".85">
    <rect x="380" y="220" width="58" height="58" rx="12" transform="rotate(-9 409 249)"/>
    <rect x="456" y="235" width="64" height="64" rx="12" transform="rotate(13 488 267)"/>
    <rect x="408" y="330" width="54" height="54" rx="10" transform="rotate(19 435 357)"/>
  </g>
  <path d="M580 130h46c46 0 72 44 50 83-16 29-44 43-96 43v-42c28 0 47-6 57-19 10-14 0-31-20-31h-37Z" fill="#e5d1ba"/>
</svg>
